HIERARCHY
ROOT Hips
{
  OFFSET -195.929 101.931 -187.507
  CHANNELS 6 Xposition Yposition Zposition Zrotation Xrotation Yrotation
  JOINT ToSpine
  {
    OFFSET -2.69724 7.43032 -0.144315
    CHANNELS 3 Zrotation Xrotation Yrotation
    JOINT Spine
    {
      OFFSET -0.0310711 10.7595 1.96963
      CHANNELS 3 Zrotation Xrotation Yrotation
      JOINT Spine1
      {
        OFFSET 19.9056 3.91189 0.764692
        CHANNELS 3 Zrotation Xrotation Yrotation
        JOINT Neck
        {
          OFFSET 25.9749 7.03908 -0.130764
          CHANNELS 3 Zrotation Xrotation Yrotation
          JOINT Head
          {
            OFFSET 9.52751 0.295786 -0.907742
            CHANNELS 3 Zrotation Xrotation Yrotation
            End Site
            {
              OFFSET 16.4037 0.713936 2.7358
            }
          }
        }
        JOINT LeftShoulder
        {
          OFFSET 17.7449 4.33886 11.7777
          CHANNELS 3 Zrotation Xrotation Yrotation
          JOINT LeftArm
          {
            OFFSET 0.911315 1.27913 9.80584
            CHANNELS 3 Zrotation Xrotation Yrotation
            JOINT LeftForeArm
            {
              OFFSET 28.6126 1.18197 -3.53199
              CHANNELS 3 Zrotation Xrotation Yrotation
              JOINT LeftHand
              {
                OFFSET 27.5088 0.0218783 0.327423
                CHANNELS 3 Zrotation Xrotation Yrotation
                End Site
                {
                  OFFSET 18.6038 -0.000155887 0.382096
                }
              }
            }
          }
        }
        JOINT RightShoulder
        {
          OFFSET 17.1009 2.89543 -12.2328
          CHANNELS 3 Zrotation Xrotation Yrotation
          JOINT RightArm
          {
            OFFSET 1.4228 0.178766 -10.211
            CHANNELS 3 Zrotation Xrotation Yrotation
            JOINT RightForeArm
            {
              OFFSET 28.733 1.87905 2.64907
              CHANNELS 3 Zrotation Xrotation Yrotation
              JOINT RightHand
              {
                OFFSET 27.4588 0.290562 -0.101845
                CHANNELS 3 Zrotation Xrotation Yrotation
                End Site
                {
                  OFFSET 17.8396 -0.255518 -0.000602873
                }
              }
            }
          }
        }
      }
    }
  }
  JOINT LeftUpLeg
  {
    OFFSET -5.61296 -2.22332 -10.2353
    CHANNELS 3 Zrotation Xrotation Yrotation
    JOINT LeftLeg
    {
      OFFSET 2.56703 -44.7417 -7.93097
      CHANNELS 3 Zrotation Xrotation Yrotation
      JOINT LeftFoot
      {
        OFFSET 3.16933 -46.5642 -3.96578
        CHANNELS 3 Zrotation Xrotation Yrotation
        JOINT LeftToeBase
        {
          OFFSET 0.346054 -6.02161 12.8035
          CHANNELS 3 Zrotation Xrotation Yrotation
          End Site
          {
            OFFSET 0.134235 -1.35082 5.13018
          }
        }
      }
    }
  }
  JOINT RightUpLeg
  {
    OFFSET -5.7928 -1.72406 10.6446
    CHANNELS 3 Zrotation Xrotation Yrotation
    JOINT RightLeg
    {
      OFFSET -2.57161 -44.7178 -7.85259
      CHANNELS 3 Zrotation Xrotation Yrotation
      JOINT RightFoot
      {
        OFFSET -3.10148 -46.5936 -4.03391
        CHANNELS 3 Zrotation Xrotation Yrotation
        JOINT RightToeBase
        {
          OFFSET -0.0828122 -6.13587 12.8035
          CHANNELS 3 Zrotation Xrotation Yrotation
          End Site
          {
            OFFSET -0.131328 -1.35082 5.13018
          }
        }
      }
    }
  }
}
MOTION
Frames:	10
Frame Time:	0.0333333
254.75 91.0318 243.739 -77.5813 46.7404 174.627 -70.1915 0 88.8779 154.768 70.0904 -61.9456 -0.432052 29.3228 5.51585 -140.073 34.6972 169.136 -146.01 75.0131 -163.618 1.72465 -6.27013 -29.1113 -50.6874 48.673 -101.196 1.59542 -0.774539 -29.972 17.5982 -0.885732 -3.94844 0.827128 -13.0212 16.4198 -71.9689 -51.3006 102.342 13.0315 -3.7186 73.2765 7.81764 0.684481 10.4915 -17.2694 0.718192 92.1839 2.63961 56.2723 29.8339 0.152081 -11.5928 -0.959696 -6.9069 -25.9135 -90.0553 -54.057 3.70641 84.4991 13.3215 75.7106 -3.929 -7.57121 -11.7356 1.15519 9.3509 -18.9339 -12.4105 
245.915 93.1445 234.445 -77.5904 47.3775 172.777 -70.1915 0 88.8779 145.831 70.8474 -57.2476 2.62672 27.1329 5.88475 -143.641 30.9362 175.022 -139.172 69.1368 -179.406 2.22527 -4.01596 -31.1128 -54.3833 49.9101 -97.2551 1.9053 -0.228524 -30.7781 16.8825 -0.853293 -3.97382 0.355972 -7.82915 12.8216 -66.0306 -54.9534 107.12 14.6367 -3.62114 76.0848 6.71567 0.439324 7.87538 -21.8882 -1.44258 92.9056 -2.88514 49.5226 -3.3008 2.81853 8.74901 -0.0410414 -7.11826 -28.4588 10.2738 -55.2531 7.17434 91.5109 19.1211 80.5955 -15.3862 -5.75983 -2.44424 0.920526 -1.37543 10.5218 -4.30541 
236.13 93.4266 224.873 -78.9249 47.4824 172.01 -70.1915 0 88.8779 139.552 70.9246 -54.0607 4.17227 25.5384 5.73179 -145.171 27.7607 177.275 -141.019 64.9913 174.768 2.66755 -2.40385 -33.0384 -59.7469 48.8206 -95.4241 2.4215 0.611887 -31.9117 18.0029 -0.73585 -2.89428 0.345619 -5.16353 13.5434 -62.6176 -56.4644 106.325 12.728 -3.64538 73.166 6.1873 0.487555 9.6423 -25.0981 -2.03217 96.8904 -3.07153 51.722 -1.94288 0.52096 9.24168 0.441038 -5.88705 -21.3708 10.6375 -53.4718 8.85174 95.722 97.6124 86.5121 -95.5663 -5.72186 -1.15784 0.889031 5.14351 3.4817 -15.6544 
225.936 92.3544 215.591 -82.2086 44.1777 173.637 -70.1915 0 88.8779 130.654 68.466 -45.2469 7.61499 22.5412 -0.557322 -147.457 23.4077 173.696 -144.847 60.6924 171.964 2.7208 -0.626221 -29.4203 -65.7843 48.6337 -98.2231 3.42366 1.98253 -35.0255 15.2577 -0.390215 -1.19735 0.41749 -2.68598 20.1857 -63.8385 -56.5608 100.807 15.699 -5.89343 67.7148 6.60396 0.401011 7.29888 -29.9925 -5.39858 98.4671 -4.87043 61.4352 -0.00329157 6.79653 11.2769 -0.7846 -6.59541 -25.5003 12.7244 -48.5381 6.62753 94.7732 155.57 81.1241 -156.576 -7.20268 -3.73954 1.07714 5.98792 -1.55896 -15.1398 
216.761 91.5845 206.479 -83.8333 41.3503 173.117 -70.1915 0 88.8779 124.308 67.1842 -41.6488 9.46823 20.4498 -2.10636 -151.456 20.7487 172.632 -150.239 58.4531 171.875 3.02575 1.06428 -29.5379 -68.1306 45.1976 -106.782 6.05872 5.39185 -36.4709 17.1449 -0.574294 -2.07479 0.398888 -1.87273 24.1235 -66.3121 -58.0985 94.5303 11.5965 -6.11327 57.1052 11.3672 0.585492 5.85636 -35.0606 -8.57905 98.648 -7.12652 68.5596 3.38397 9.32683 13.5226 -1.35132 -9.59418 -39.995 8.53173 -39.6583 3.70262 94.9526 158.223 79.0023 -155.907 -6.47806 -10.6012 1.1167 7.02597 0.441075 -19.1453 
207.19 91.9045 197.656 -83.7085 36.463 171.589 -70.1915 0 88.8779 118.112 65.8018 -37.7038 9.21939 18.2508 -1.80382 -153.69 19.5848 171.098 -151.473 57.0952 169.084 2.70093 0.649961 -26.9395 -71.9223 46.6466 -112.379 9.38699 8.26201 -41.6448 18.5244 -0.782382 -3.04428 0.460446 -2.0642 27.087 -75.6881 -58.018 79.8043 19.9705 -14.5785 51.1145 8.70461 -0.17906 -2.90226 -41.5241 -12.4381 97.056 -9.7592 71.8185 2.29214 7.58516 9.76887 -0.964724 -9.86225 -42.4498 10.1325 -30.1459 -0.983004 95.2993 132.076 84.478 -124.18 -5.8314 -8.20474 1.04734 9.39342 -13.1046 -18.5978 
198.187 93.176 188.139 -83.9554 35.6674 172.91 -70.1915 0 88.8779 118.631 65.1731 -38.0835 8.39787 17.5435 0.836888 -155.771 19.5947 173.187 -151.677 56.7588 166.478 2.63582 1.11728 -25.5933 -72.1607 47.3543 -116.626 11.064 7.39148 -51.0827 19.4615 -1.22334 -5.33595 0.534344 -2.62426 26.8359 -76.7594 -59.6535 69.7873 14.7242 -11.4756 47.0641 11.9177 0.151594 1.16818 -50.1428 -8.84388 96.1953 -12.3591 73.2248 -1.53281 7.11352 8.31879 -0.883577 -9.57882 -42.3563 11.613 -24.9104 -0.664394 93.9736 15.278 78.0774 -8.68063 -6.35885 -7.94293 1.06969 8.65309 -15.6209 -13.1689 
188.815 94.8763 179.591 -82.0568 33.4649 174.041 -70.1915 0 88.8779 115.306 64.2815 -31.291 6.90383 15.9486 1.81475 -153.042 19.387 173.856 -148.165 55.6886 163.933 2.54102 1.05987 -24.7257 -73.0525 46.7862 -112.625 12.9247 5.27002 -65.0371 16.834 -1.27015 -6.74197 0.358278 -1.43371 25.3267 -80.9591 -62.7515 55.4548 10.3493 -7.20045 47.449 10.0483 0.154191 1.50469 -55.6299 -6.71039 92.3443 -12.1043 72.9449 -2.23875 5.48248 6.39883 -0.617847 -8.2974 -34.1352 8.85535 -22.7578 -4.10872 87.5641 3.28034 57.6906 -1.22903 -4.06227 -2.1817 0.740075 5.64868 -2.07423 -13.8483 
178.372 96.3402 171.064 -81.6516 32.8979 173.906 -70.1915 0 88.8779 111.133 64.3084 -24.111 8.82971 15.3808 0.715746 -152.149 19.3737 174.751 -144.676 54.4342 159.934 2.56729 2.83123 -22.9338 -72.8588 46.8194 -108.882 16.0732 4.05185 -74.8325 13.5233 -1.2125 -8.31126 0.188463 0.010144 23.3222 -84.8592 -65.3391 44.7053 4.74407 -2.06865 47.119 9.03443 0.345336 4.32831 -61.4661 -8.43845 88.4553 -9.67788 71.4893 0.851711 4.03608 8.65643 -0.282201 -6.69095 -26.1297 12.9141 -25.0259 -9.50512 77.1902 1.81739 42.1407 2.24086 -2.86827 0.813029 0.479041 -8.33507 12.8057 8.41571 
168.494 95.831 162.146 -83.3166 32.0771 175.043 -70.1915 0 88.8779 110.142 64.8808 -21.9815 10.5609 15.5767 2.00378 -150.171 20.1918 175.291 -142.356 54.5484 158.019 2.55969 3.97143 -21.818 -72.2637 47.5984 -105.983 13.9448 3.47057 -74.8294 14.4823 -1.23325 -7.81664 0.173776 0.154129 23.212 -90.4272 -63.5971 36.5147 0.593144 1.62385 48.7174 7.95706 0.256834 3.63959 -63.9564 -9.80931 84.9077 -8.90639 74.655 11.2402 5.42264 11.7852 -0.474664 -7.81507 -33.8211 13.9031 -27.9684 -12.2686 70.95 1.59347 40.604 1.06231 -1.13117 5.60674 -0.0357133 -11.2138 14.3974 12.6886 
